<svg version="1.1" viewBox="0.0 0.0 960.0 720.0" fill="none" stroke="none" stroke-linecap="square" stroke-miterlimit="10" xmlns:xlink="http://www.w3.org/1999/xlink" xmlns="http://www.w3.org/2000/svg"><clipPath id="p.0"><path d="m0 0l960.0 0l0 720.0l-960.0 0l0 -720.0z" clip-rule="nonzero"/></clipPath><g clip-path="url(#p.0)"><path fill="#000000" fill-opacity="0.0" d="m0 0l960.0 0l0 720.0l-960.0 0z" fill-rule="evenodd"/><path fill="#ffffff" d="m266.4462 258.84415l0 0c0 -27.388092 22.202454 -49.590546 49.590546 -49.590546l324.44092 0c13.152283 0 25.765808 5.224701 35.065857 14.5247345c9.300049 9.300034 14.524719 21.91359 14.524719 35.06581l0 198.36221c0 27.388092 -22.202454 49.590546 -49.590576 49.590546l-324.44092 0c-27.388092 0 -49.590546 -22.202454 -49.590546 -49.590546z" fill-rule="evenodd"/><path stroke="#000000" stroke-width="1.0" stroke-linejoin="round" stroke-linecap="butt" d="m266.4462 258.84415l0 0c0 -27.388092 22.202454 -49.590546 49.590546 -49.590546l324.44092 0c13.152283 0 25.765808 5.224701 35.065857 14.5247345c9.300049 9.300034 14.524719 21.91359 14.524719 35.06581l0 198.36221c0 27.388092 -22.202454 49.590546 -49.590576 49.590546l-324.44092 0c-27.388092 0 -49.590546 -22.202454 -49.590546 -49.590546z" fill-rule="evenodd"/><path fill="#000000" d="m279.91602 266.9449l0 0c0 -25.0775 20.329315 -45.40683 45.40683 -45.40683l307.3596 0c12.042603 0 23.592041 4.7839203 32.107483 13.299347c8.515381 8.515442 13.299316 20.064835 13.299316 32.107483l0 181.62729c0 25.077515 -20.329346 45.40683 -45.4068 45.40683l-307.3596 0c-25.077515 0 -45.40683 -20.329315 -45.40683 -45.40683z" fill-rule="evenodd"/><path stroke="#000000" stroke-width="1.0" stroke-linejoin="round" stroke-linecap="butt" d="m279.91602 266.9449l0 0c0 -25.0775 20.329315 -45.40683 45.40683 -45.40683l307.3596 0c12.042603 0 23.592041 4.7839203 32.107483 13.299347c8.515381 8.515442 13.299316 20.064835 13.299316 32.107483l0 181.62729c0 25.077515 -20.329346 45.40683 -45.4068 45.40683l-307.3596 0c-25.077515 0 -45.40683 -20.329315 -45.40683 -45.40683z" fill-rule="evenodd"/><path fill="#000000" fill-opacity="0.0" d="m302.86795 260.80643l351.2756 0l0 194.36221l-351.2756 0z" fill-rule="evenodd"/><path fill="#ffffff" d="m348.56738 280.3919l57.765625 0q19.53125 0 29.78125 2.984375q13.78125 4.0625 23.59375 14.421875q9.828125 10.34375 14.953125 25.34375q5.125 15.0 5.125 37.0q0 19.328125 -4.796875 33.3125q-5.875 17.078125 -16.765625 27.65625q-8.21875 8.0 -22.203125 12.484375q-10.46875 3.3125 -27.984375 3.3125l-59.46875 0l0 -156.51562zm31.609375 26.46875l0 103.671875l23.59375 0q13.234375 0 19.109375 -1.484375q7.6875 -1.921875 12.75 -6.515625q5.078125 -4.59375 8.28125 -15.109375q3.203125 -10.515625 3.203125 -28.671875q0 -18.140625 -3.203125 -27.859375q-3.203125 -9.71875 -8.96875 -15.15625q-5.765625 -5.453125 -14.625 -7.375q-6.625 -1.5 -25.9375 -1.5l-14.203125 0zm127.2659 130.04688l0 -155.23438l31.59378 0l0 128.85938l78.578064 0l0 26.375l-110.171844 0z" fill-rule="nonzero"/></g></svg>